<?xml version="1.0" encoding="UTF-8"?>
<!DOCTYPE svg PUBLIC "-//W3C//DTD SVG 1.1//EN" "http://www.w3.org/Graphics/SVG/1.1/DTD/svg11.dtd">
<!-- Creator: CorelDRAW (Versão OEM) -->
<svg xmlns="http://www.w3.org/2000/svg" xml:space="preserve" width="254mm" height="254mm" version="1.1" style="shape-rendering:geometricPrecision; text-rendering:geometricPrecision; image-rendering:optimizeQuality; fill-rule:evenodd; clip-rule:evenodd"
viewBox="0 0 25400 25400"
 xmlns:xlink="http://www.w3.org/1999/xlink"
 xmlns:xodm="http://www.corel.com/coreldraw/odm/2003">
 <defs>
  <style type="text/css">
   <![CDATA[
    .fil1 {fill:#030404}
    .fil3 {fill:#050606}
    .fil4 {fill:#FDCC1A}
    .fil2 {fill:#FDCD1D}
    .fil0 {fill:#FDFDFD}
   ]]>
  </style>
 </defs>
 <g id="Camada_x0020_1">
  <metadata id="CorelCorpID_0Corel-Layer"/>
  <g id="_1764628297184">
   <g>
    <path class="fil0" d="M10277.77 11439.98c264.23,28.33 655.54,5.25 935.03,5.18l1876.85 0.06c262.01,0.09 691.31,-78.12 752.58,183.35 28.22,120.45 -63.96,726.34 -108.71,827.96 -111.96,254.3 -401.48,222.78 -706.43,223.29 -611.36,1.04 -1283.1,26.24 -1887.34,-1.43l137.83 -959.33 -1034.15 -0.91c-77.91,332.21 -228.98,1451.94 -302.5,1889.81 -38.09,226.81 -294.89,1802.63 -285.77,1907.7l1027.15 1.92c96.59,-330.96 214.23,-1675.71 302.08,-1824.84 95.2,-48.51 792.82,-22.59 958.29,-13.19 42.75,19.26 1125.26,1771.16 1167.65,1842.43l1319.78 0.76c-22.16,-111.42 -1034,-1612.98 -1186.42,-1888.25 320.45,-50.68 537.61,33.49 947.19,-219.02 584.39,-360.27 591.5,-1006.97 688.53,-1662.23 58.43,-394.68 108.03,-678.89 -121.29,-981.86 -385.66,-509.52 -1200.59,-391.84 -1960.43,-392.52 -785.92,-0.72 -1571.87,0.29 -2357.8,0.49l-162.12 1060.63z"/>
    <path class="fil0" d="M16271.57 12719.42c1.32,-180.23 73.65,-535.42 104,-723.66 100.88,-625.67 9.73,-567.33 259.24,-567.23l1209.53 -0.05c939.01,-1.28 1001.92,-80.2 865.14,722.74 -77.94,457.52 -91.04,573.72 -594.04,573.6 -580.57,0.01 -1275.55,13.86 -1843.87,-5.4zm-1401.17 2795.97l985.69 -0.07 268.21 -1766.05c315.88,-112.83 2131.79,111.73 2695,-106.04 822.97,-318.21 822.32,-1128.99 936.88,-1874.66 56.61,-368.49 116.92,-839.15 -191.55,-1111.32 -290.2,-256.04 -638.83,-276.92 -1115.53,-278.35 -924.7,-2.77 -1891.81,-25.61 -2812.07,1.99l-766.63 5134.5z"/>
    <path class="fil1" d="M7879.2 15525.26c-45.41,-206.02 -114.04,-420.38 -170.42,-624.3 -76.84,-278.03 -120.66,-345.32 -270.49,-521.74l-181.97 -214.72c-50.8,-80.24 -198.18,-824.51 -230.45,-959.27 -40.9,-170.76 -57,-175.47 10.83,-332.44 252.05,-583.42 356.03,-743.35 708.08,-1273.23 72.38,-108.96 242.08,-406.66 318.53,-471.89 70.64,347.12 200.9,760.34 294.81,1102.43 99.94,364 192,722.06 290.58,1085.63 87.76,323.66 556.85,2009.37 566.9,2207.71l-1336.4 1.82zm-5671.2 16.91c27.73,-86.09 899.74,-1482.39 979.38,-1618.39l2892.91 -4759.4c29.08,-48.55 32.79,-55.13 65.02,-89.77l1376.35 1.98c51.04,93.63 414.88,1513.58 460.7,1717.28 22.46,99.84 -3,116.4 -59.46,169.68l-964.3 917.3c-32.78,-50.76 -152.58,-666.22 -163.11,-717.22 -26.09,-126.46 -52.1,-237.14 -78.98,-360.97 -14.67,-67.5 -25.75,-122.42 -38.95,-189.27l-48.04 -146.9c-1.46,-8.61 -6.44,-10.05 -10.34,-14.55l-754.12 1290.81c-255.75,420.21 -496.82,851.35 -753.02,1269.01l-1517.17 2532.66 -1386.87 -2.25zm262.64 -741.01l-372.83 603.98c-63.84,227.08 -222.09,165.36 -32.34,429.43l317.6 5.05c249.88,-6.37 508.37,-1.36 759.71,-3.74 221.6,-2.08 156.07,-0.77 270.16,108.08l631.77 515.05c160.63,113.12 313.04,182.22 478.9,297.59 -21.05,191.19 -183.69,444.34 -210.73,621.45l126.14 70.07c73.2,-30.73 273.9,-498.68 306.32,-569.58 92.65,-202.6 187.38,-386.54 285.09,-590.49 114.25,-238.46 531.58,-1020.39 582.29,-1181.06l-1373.64 -42.91c17.73,-61.42 20.06,-58.66 69.2,-103.24 191.08,-173.37 311.4,-348.11 449.08,-468.11 81.62,-71.16 122.71,-113.22 187.44,-187.72 60.26,-69.34 105.91,-119.4 167.25,-187.62l552.11 -573.47c123.98,-102.84 245.93,-254.88 353.8,-376.52l375.2 -375.4c117.43,-126.2 223.26,-262.72 356.43,-373.27 76.12,-63.19 121.9,-116.71 187.02,-188.47 76.45,-84.25 119.68,-150.43 200.67,-189.25 -45.91,159.68 -217.37,438.91 -295.03,595.31 -147.97,298 -886.83,1701.87 -898.68,1774.22l1353.65 59.95c-9.93,48.11 -7.02,27.1 -33.54,67.18 -7.68,11.6 -40.94,52.45 -55.69,70.35l-754.01 935.11c-292.73,366.33 -565.5,702.34 -858.56,1059.56 -413.86,504.47 -1112.59,1369.08 -1482.62,1874.53 -59.31,81.02 -142.49,213.37 -229.45,279.46l-85.52 160.84c93.15,42.84 98,21.15 248.03,-173.03 205.66,-266.16 651.11,-731.48 878.01,-1019.48 229.36,-291.14 654.4,-745.04 874.44,-1023.3 73.95,-93.54 141.67,-163.18 220.31,-259.16l869.74 -1028.49c101.9,-116.68 85.17,-180.54 298.77,-179.7 151.5,0.61 307.27,-5.2 454.08,3.81l200.81 572.41 1487.74 -2.31c66.13,-192.77 -105.56,-703.01 -159.04,-908.27 -366.57,-1406.88 -767.06,-2839.09 -1119.52,-4239.84 -142.09,-564.76 -309.12,-1124.67 -441.76,-1686.41l-1505.84 -0.19c-72.1,43.9 -805.16,1283.47 -907.06,1453.64 -737.23,1231.16 -1500.36,2439.76 -2224.99,3656.64 -145.06,243.61 -316.17,486.87 -439.51,730.41 -39.51,-5.96 -30.5,-0.79 -61.4,-13.09z"/>
    <path class="fil0" d="M2208 15542.17l1386.87 2.25 1517.17 -2532.66c256.2,-417.66 497.27,-848.8 753.02,-1269.01l754.12 -1290.81c3.9,4.5 8.88,5.94 10.34,14.55l48.04 146.9c13.2,66.85 24.28,121.77 38.95,189.27 26.88,123.83 52.89,234.51 78.98,360.97 10.53,51 130.33,666.46 163.11,717.22l964.3 -917.3c56.46,-53.28 81.92,-69.84 59.46,-169.68 -45.82,-203.7 -409.66,-1623.65 -460.7,-1717.28l-1376.35 -1.98c-32.23,34.64 -35.94,41.22 -65.02,89.77l-2892.91 4759.4c-79.64,136 -951.65,1532.3 -979.38,1618.39z"/>
    <path class="fil2" d="M2097.81 15405.14l372.83 -603.98c-51.64,-129.46 -149.98,-284.7 -220.96,-447.32 -221.75,-507.97 -347.62,-986.87 -394.61,-1559.49 -146.02,-1779.59 683.09,-3463.18 2013.46,-4487.23 251.93,-193.92 480.88,-342.67 778.34,-514.16 1144.89,-660.03 2899.27,-944.32 4295.31,-440.85 871.39,314.26 1799.91,871.6 2396.04,1541.96l446.41 533.92c44.66,57.68 79.04,154.02 163.86,119.16 23.98,-74.12 -57.82,-162.39 -101.05,-244.77 -129.26,-246.39 -280.22,-473.66 -439.6,-686.07 -103.01,-137.32 -219.99,-290.82 -339.56,-410.78 -130.44,-130.86 -236.16,-235.42 -367.59,-363.02 -478.25,-464.32 -1223.85,-874.99 -1880.08,-1100.75 -1811.33,-623.15 -3892.84,-140.6 -5241.96,879.05l-415.63 335.16c-40.44,40.06 -62.48,49.49 -104.44,83.34l-552.15 574.23c-1069.07,1185.32 -1548.6,3043.92 -1258.32,4672.34 79.52,446.05 182.97,769.04 331.13,1152.9l370.73 756.38c27.36,45.14 42.15,74.16 69.23,118.09 8.75,14.22 23.37,36.99 34.4,50.18 2.76,3.31 7.53,8.43 10.12,11.29l22.34 20.65c1.63,-3.49 7.56,6.87 11.75,9.77z"/>
    <path class="fil0" d="M23333.38 15357.14l386.49 -1114.4c-307.95,-28.83 -739.83,-6.14 -1058.29,-5.94 -361.28,0.22 -723.25,-2.24 -1084.41,0.22 -968.63,6.61 -853.77,-23.06 -667.58,-1254.32 46.52,-307.6 93.23,-614.41 139.97,-927.62 120.16,-805.29 443.94,-626.59 1528.6,-627.27 361.42,-0.23 722.99,-0.06 1084.41,0.59 53.33,-35.77 41.58,-34.41 71.05,-106.91l154.77 -407.44c60.76,-164.9 161.34,-372.79 207.53,-532.15 -511.29,-27.96 -1082.53,-2.71 -1601.17,-4.97 -479.75,-2.09 -1100.48,-47.41 -1508.81,116.72 -912.45,366.75 -838.75,1156.97 -1009.26,2218.71 -74.8,465.87 -137.71,935.41 -209.67,1400.23 -86.34,557.7 119.82,915.47 476.77,1100.6 403.01,209.01 965.66,144.15 1458.52,144.09 543.16,-0.07 1088.16,-4.47 1631.08,-0.14z"/>
    <path class="fil3" d="M11470.1 11801.98l1744.67 -2.5c196.93,-0.55 390.31,-38.58 499.76,77.33 33.06,148.39 -51.91,555.9 -137.31,633.56 -125.73,114.34 -496,75.77 -696.12,75.41 -502.89,-0.92 -1040.21,19.39 -1540.63,-2.9l129.63 -780.9zm-1030.21 -1422.63c785.93,-0.2 1571.88,-1.21 2357.8,-0.49 759.84,0.68 1574.77,-117 1960.43,392.52 229.32,302.97 179.72,587.18 121.29,981.86 -97.03,655.26 -104.14,1301.96 -688.53,1662.23 -409.58,252.51 -626.74,168.34 -947.19,219.02 152.42,275.27 1164.26,1776.83 1186.42,1888.25l-1319.78 -0.76c-42.39,-71.27 -1124.9,-1823.17 -1167.65,-1842.43 -165.47,-9.4 -863.09,-35.32 -958.29,13.19 -87.85,149.13 -205.49,1493.88 -302.08,1824.84l-1027.15 -1.92c-9.12,-105.07 247.68,-1680.89 285.77,-1907.7 73.52,-437.87 224.59,-1557.6 302.5,-1889.81l1034.15 0.91 -137.83 959.33c604.24,27.67 1275.98,2.47 1887.34,1.43 304.95,-0.51 594.47,31.01 706.43,-223.29 44.75,-101.62 136.93,-707.51 108.71,-827.96 -61.27,-261.47 -490.57,-183.26 -752.58,-183.35l-1876.85 -0.06c-279.49,0.07 -670.8,23.15 -935.03,-5.18l162.12 -1060.63zm3123.91 3558.12c1313.32,-113.57 1286.17,-1275.09 1441.48,-2251.32 253.27,-1591.99 -1225.18,-1403.19 -2207.59,-1404.95 -810.52,-1.44 -1621.07,0.18 -2431.57,1.13 -69.86,157.3 -182.72,1131.66 -220.48,1384.49 -101.41,678.75 -653.83,3924.6 -611.17,4140.06 68.4,5.95 1267.78,29.97 1315.56,-18.21 69.82,-89.24 221.94,-1487.55 292.13,-1744.38 101.35,-50.48 8.22,-10.7 70.72,-18.78l562.97 1.44 1126.11 1776.41 1690.45 -5.75c24.35,-233.11 20.24,-218.71 -177.02,-512.34 -133.37,-198.52 -782.4,-1201.33 -851.59,-1347.8z"/>
    <path class="fil0" d="M7879.2 15525.26l1336.4 -1.82c-10.05,-198.34 -479.14,-1884.05 -566.9,-2207.71 -98.58,-363.57 -190.64,-721.63 -290.58,-1085.63 -93.91,-342.09 -224.17,-755.31 -294.81,-1102.43 -76.45,65.23 -246.15,362.93 -318.53,471.89 -352.05,529.88 -456.03,689.81 -708.08,1273.23 -67.83,156.97 -51.73,161.68 -10.83,332.44 32.27,134.76 179.65,879.03 230.45,959.27l181.97 214.72c149.83,176.42 193.65,243.71 270.49,521.74 56.38,203.92 125.01,418.28 170.42,624.3z"/>
    <path class="fil4" d="M4439.02 17448.12c28.92,57.56 18.15,16.85 -1.79,79.1 -48.77,152.29 -470.84,968.27 -553.88,1229.46 86.96,-66.09 170.14,-198.44 229.45,-279.46 370.03,-505.45 1068.76,-1370.06 1482.62,-1874.53 293.06,-357.22 565.83,-693.23 858.56,-1059.56l754.01 -935.11c14.75,-17.9 48.01,-58.75 55.69,-70.35 26.52,-40.08 23.61,-19.07 33.54,-67.18l-1353.65 -59.95c11.85,-72.35 750.71,-1476.22 898.68,-1774.22 77.66,-156.4 249.12,-435.63 295.03,-595.31 -80.99,38.82 -124.22,105 -200.67,189.25 -65.12,71.76 -110.9,125.28 -187.02,188.47 -133.17,110.55 -239,247.07 -356.43,373.27l-375.2 375.4c-107.87,121.64 -229.82,273.68 -353.8,376.52l-552.11 573.47c-61.34,68.22 -106.99,118.28 -167.25,187.62 -64.73,74.5 -105.82,116.56 -187.44,187.72 -137.68,120 -258,294.74 -449.08,468.11 -49.14,44.58 -51.47,41.82 -69.2,103.24l1373.64 42.91c-50.71,160.67 -468.04,942.6 -582.29,1181.06 -97.71,203.95 -192.44,387.89 -285.09,590.49 -32.42,70.9 -233.12,538.85 -306.32,569.58z"/>
    <path class="fil3" d="M23333.38 15357.14c-542.92,-4.33 -1087.92,0.07 -1631.08,0.14 -492.86,0.06 -1055.51,64.92 -1458.52,-144.09 -356.95,-185.13 -563.11,-542.9 -476.77,-1100.6 71.96,-464.82 134.87,-934.36 209.67,-1400.23 170.51,-1061.74 96.81,-1851.96 1009.26,-2218.71 408.33,-164.13 1029.06,-118.81 1508.81,-116.72 518.64,2.26 1089.88,-22.99 1601.17,4.97 -46.19,159.36 -146.77,367.25 -207.53,532.15l-154.77 407.44c-29.47,72.5 -17.72,71.14 -71.05,106.91 -361.42,-0.65 -722.99,-0.82 -1084.41,-0.59 -1084.66,0.68 -1408.44,-178.02 -1528.6,627.27 -46.74,313.21 -93.45,620.02 -139.97,927.62 -186.19,1231.26 -301.05,1260.93 667.58,1254.32 361.16,-2.46 723.13,0 1084.41,-0.22 318.46,-0.2 750.34,-22.89 1058.29,5.94l-386.49 1114.4zm361.01 -3595.66c56.42,-102.69 549.76,-1414.07 540.72,-1478.68 -538.46,-30.58 -1171.09,-3.28 -1719.51,-2.31 -519.59,0.92 -1123.67,-51.53 -1572.91,128.17 -954.17,381.66 -898.57,1218.03 -1074.85,2343.61 -75.02,479.08 -169.53,1014.85 -218.66,1493.47 -62.1,604.7 106.2,991.56 466.94,1220.02 425.47,269.45 949.18,209.73 1502.76,210.32 528.71,0.56 1198.66,35.3 1710.02,-4.35 45.59,-65.77 520.03,-1479.65 516.14,-1533.38l-2559.82 -0.34c-155.18,1.92 -335.06,15.46 -390.14,-120.9 -49.3,-122.08 195.12,-1541.41 231.74,-1777.46 52.12,-335.99 150.76,-471.78 554.52,-474.96 447.48,-3.52 1680.05,23.48 2013.05,-3.21z"/>
    <path class="fil3" d="M15637.03 10380.89c920.26,-27.6 1887.37,-4.76 2812.07,-1.99 476.7,1.43 825.33,22.31 1115.53,278.35 308.47,272.17 248.16,742.83 191.55,1111.32 -114.56,745.67 -113.91,1556.45 -936.88,1874.66 -563.21,217.77 -2379.12,-6.79 -2695,106.04l-268.21 1766.05 -985.69 0.07 766.63 -5134.5zm555.34 3701.11c501.06,-5.77 1004.63,-0.52 1505.98,-0.65 494.48,-0.16 890.3,39.22 1290.8,-183.87 725.33,-404.02 726.8,-1130.39 868.05,-2093.66 163.67,-1115.99 -208.67,-1523.44 -1345.55,-1522.76 -493.5,0.3 -987.11,0.76 -1480.62,0.17 -477.51,-0.58 -995,-17.29 -1467.96,3.5 -35.15,84.23 -398.11,2603.4 -418.96,2755.22 -63.2,460.12 -139.36,907.2 -209.35,1371.5 -67.95,450.9 -164.44,936.18 -190.51,1393.66l1179.68 -3.23 268.44 -1719.88z"/>
    <path class="fil2" d="M4312.88 17378.05c27.04,-177.11 189.68,-430.26 210.73,-621.45 -165.86,-115.37 -318.27,-184.47 -478.9,-297.59l-631.77 -515.05c-114.09,-108.85 -48.56,-110.16 -270.16,-108.08 -251.34,2.38 -509.83,-2.63 -759.71,3.74 120.23,195.61 292.03,296.68 428.4,455.61 127.43,148.51 293.97,277.34 452.33,402.66 310.55,245.76 668.19,470.65 1049.08,680.16z"/>
    <path class="fil3" d="M16399.55 12628.38c5.1,-114.84 95.05,-738.56 131.94,-807.9 31.72,-22.1 -8.31,-7.23 45.15,-17.48l1852.77 -5.06c293.17,1.92 197.94,187.62 163.28,426.59 -73.13,504.1 -206.6,408.12 -894.34,407.06 -432.27,-0.67 -866.87,3.83 -1298.8,-3.21zm-127.98 91.04c568.32,19.26 1263.3,5.41 1843.87,5.4 503,0.12 516.1,-116.08 594.04,-573.6 136.78,-802.94 73.87,-724.02 -865.14,-722.74l-1209.53 0.05c-249.51,-0.1 -158.36,-58.44 -259.24,567.23 -30.35,188.24 -102.68,543.43 -104,723.66z"/>
   </g>
  </g>
 </g>
</svg>
